<svg xmlns="http://www.w3.org/2000/svg" version="1.1" xmlns:xlink="http://www.w3.org/1999/xlink" xmlns:svgjs="http://svgjs.dev/svgjs" width="1000" height="803" viewBox="0 0 1000 803"><g transform="matrix(1,0,0,1,0,0)"><svg viewBox="0 0 448 360" data-background-color="#dedede" preserveAspectRatio="xMidYMid meet" height="803" width="1000" xmlns="http://www.w3.org/2000/svg" xmlns:xlink="http://www.w3.org/1999/xlink"><g id="tight-bounds" transform="matrix(1,0,0,1,0,0)"><svg viewBox="0 0 448 360" height="360" width="448"><g><svg></svg></g><g><svg viewBox="0 0 448 360" height="360" width="448"><g><path xmlns="http://www.w3.org/2000/svg" d="M193.855 44.683c1.378 0 2.494 1.116 2.495 2.494 0 1.378-1.116 2.494-2.495 2.495h-23.846l-17.167 17.167c-0.973 0.973-2.551 0.973-3.53 0-0.973-0.973-0.973-2.551 0-3.529l13.644-13.645h-40.378c-11.518 0-19.151 2.688-23.815 8.113-4.739 5.519-6.66 14.056-6.66 25.63 0 0.069 0 0.137-0.006 0.206l0.212 36.692 14.692-14.692c0.973-0.973 2.551-0.973 3.53 0 0.973 0.973 0.973 2.551 0 3.53l-18.178 18.178c0.206 35.832 0.193 71.358-0.013 107.19 25.486 25.2 50.617 50.312 75.811 75.791h25.38c1.378 0 2.494 1.116 2.495 2.495 0 1.378-1.116 2.494-2.495 2.494h-20.448l25.942 26.241 0.006-0.006c8.188 8.188 15.577 12.859 22.824 13.413 7.146 0.543 14.442-2.956 22.586-11.093l28.555-28.555h-20.722c-1.378 0-2.494-1.116-2.495-2.494 0-1.378 1.116-2.494 2.495-2.495h25.711l16.625-16.625c0.973-0.973 2.551-0.973 3.529 0 0.973 0.973 0.973 2.551 0 3.53l-13.101 13.102h40.377c11.518 0 19.151-2.688 23.815-8.113 4.739-5.519 6.66-14.056 6.66-25.63h0.013l-0.212-36.898-16.014 16.014c-0.973 0.973-2.551 0.973-3.53 0-0.973-0.973-0.973-2.551 0-3.53l19.5-19.5c-0.206-35.832-0.193-71.358 0.013-107.19-25.486-25.2-50.617-50.312-75.811-75.791h-26.147c-1.378 0-2.494-1.116-2.495-2.495 0-1.378 1.116-2.494 2.495-2.494h21.215l-25.824-26.123c-0.044-0.037-0.081-0.075-0.124-0.112-8.188-8.188-15.577-12.859-22.824-13.413-7.146-0.543-14.442 2.956-22.586 11.093l-28.555 28.555h18.858zM122.578 44.683h45.367l32.078-32.078c9.248-9.248 17.81-13.195 26.484-12.534 8.568 0.649 16.956 5.824 25.985 14.854 0.05 0.05 0.094 0.094 0.137 0.143l29.278 29.615h43.508c13.071 0 21.919 3.268 27.594 9.871 5.6 6.517 7.864 16.101 7.864 28.867 0 0.081-0.006 0.156-0.012 0.23l-0.225 39.742 28.43 28.112 0.006-0.006c9.03 9.03 14.206 17.411 14.854 25.985 0.661 8.674-3.293 17.236-12.534 26.484l-30.768 30.768 0.237 41.843h0.012c0 12.765-2.27 22.35-7.864 28.867-5.675 6.604-14.524 9.872-27.594 9.871h-45.366l-32.078 32.078c-9.248 9.248-17.81 13.195-26.484 12.534-8.568-0.649-16.956-5.824-25.985-14.854l0.006-0.006-29.421-29.758h-43.509c-13.071 0-21.919-3.268-27.594-9.872-5.6-6.517-7.864-16.101-7.863-28.866h0.012l0.231-39.972-28.293-27.969c-0.05-0.044-0.1-0.087-0.143-0.137-9.03-9.03-14.206-17.411-14.854-25.985-0.661-8.674 3.293-17.236 12.534-26.484l30.768-30.768-0.237-41.607c-0.006-0.075-0.012-0.156-0.012-0.23 0-12.765 2.27-22.35 7.864-28.867 5.675-6.604 14.524-9.872 27.594-9.871zM87.682 179.997l-0.274-47.724-27.276 27.276c-8.138 8.138-11.636 15.44-11.094 22.587 0.549 7.246 5.226 14.642 13.413 22.823 0.037 0.037 0.081 0.081 0.113 0.125l24.837 24.551 0.281-49.644zM92.303 241.483l-0.2 35.09h0.013c0 11.58 1.921 20.117 6.66 25.63 4.664 5.432 12.297 8.113 23.815 8.113h38.576l-33.55-33.936-35.308-34.903zM325.415 49.672h-38.575l33.549 33.936 35.308 34.902 0.2-34.884c-0.006-0.069-0.006-0.137-0.007-0.205 0-11.58-1.921-20.117-6.66-25.63-4.664-5.432-12.297-8.113-23.815-8.113zM360.599 130.352l-0.281 49.645 0.274 47.724 27.276-27.276c8.138-8.138 11.636-15.44 11.094-22.587-0.549-7.252-5.226-14.642-13.413-22.824l0.006-0.006-24.956-24.669z" fill="#374151" fill-rule="nonzero" stroke="none" stroke-width="1" stroke-linecap="butt" stroke-linejoin="miter" stroke-miterlimit="10" stroke-dasharray="" stroke-dashoffset="0" font-family="none" font-weight="none" font-size="none" text-anchor="none" style="mix-blend-mode: normal" data-fill-palette-color="tertiary"></path></g><g transform="matrix(1,0,0,1,135.66190398065677,90)"><svg viewBox="0 0 176.67619203868645 180" height="180" width="176.67619203868645"><g><svg viewBox="0 0 224 228.21411042847924" height="180" width="176.67619203868645"><g transform="matrix(1,0,0,1,0,135.99235244003287)"><svg viewBox="0 0 224 92.22175798844637" height="92.22175798844637" width="224"><g><svg viewBox="0 0 224 92.22175798844637" height="92.22175798844637" width="224"><g><svg viewBox="0 0 224 64.76848554835993" height="64.76848554835993" width="224"><rect width="224" height="64.76848554835993" x="0" y="0" opacity="1" fill="#374151" data-fill-palette-color="tertiary"></rect><g transform="matrix(1,0,0,1,17.083765800000002,17.083765800000002)"><svg width="189.83246839999998" viewBox="0.2800000011920929 -30.920000076293945 228.00999450683594 36.76000213623047" height="30.600953948359933" data-palette-color="#dedede"><path d="M23.56-30.48L23.56-30.48Q24.2-30.48 24.32-30L24.32-30 24.36-29.84Q23.2-29.84 22.38-28.36 21.56-26.88 21.16-24.46 20.76-22.04 20.28-18.94 19.8-15.84 19.38-12.6 18.96-9.36 18.04-6.26 17.12-3.16 15.9-0.74 14.68 1.68 12.52 3.16 10.36 4.64 7.4 4.64 4.44 4.64 2.54 2.88 0.64 1.12 0.36-1.4L0.36-1.4Q0.28-2.24 0.28-3.5 0.28-4.76 0.74-6.86 1.2-8.96 2.94-10.72 4.68-12.48 6.92-12.48L6.92-12.48Q7.52-12.48 7.86-12.12 8.2-11.76 8.32-11.04L8.32-11.04Q4.72-11.04 2.64-7.48L2.64-7.48Q1.32-5.16 1.32-2.84L1.32-2.84Q1.32-1.6 1.72-0.32L1.72-0.32Q2.84 3.24 6.96 3.24L6.96 3.24Q9.2 3.24 10.9 1.78 12.6 0.32 13.64-2.14 14.68-4.6 15.44-7.62 16.2-10.64 16.76-13.92 17.32-17.2 17.84-20.12L17.84-20.12Q19.16-27.08 21.08-29.24L21.08-29.24Q17.96-28.16 15.42-25.82 12.88-23.48 12.88-20.72L12.88-20.72Q12.88-19.48 13.72-19.48L13.72-19.48Q13.64-18.92 12.9-18.92 12.16-18.92 11.58-19.52 11-20.12 11-21.24L11-21.24Q11-23.6 13.34-25.82 15.68-28.04 18.58-29.26 21.48-30.48 23.56-30.48ZM31.12-3.68L31.12-3.68Q31.12-1.28 32.4-1.28L32.4-1.28Q34.04-1.28 36-5.68L36-5.68Q38.28-10.72 38.28-15.12L38.28-15.12Q38.28-18.12 36.72-18.12 35.16-18.12 33.22-15.58 31.28-13.04 29.84-9.88 28.4-6.72 27.38-4.18 26.36-1.64 26.36-1.36L26.36-1.36Q26.36-0.76 25.76-0.76L25.76-0.76Q24.56-0.76 24.56-3.96L24.56-3.96Q24.56-10.32 25.84-16.74 27.12-23.16 28.88-27.02 30.64-30.88 32.16-30.88L32.16-30.88Q32.8-30.88 32.8-30.24L32.8-30.24Q30.68-25.56 29.14-19 27.6-12.44 26.84-6.56L26.84-6.56 27.12-6.56Q28.96-11.24 31.32-14.96L31.32-14.96Q32.64-17.04 34.14-18.26 35.64-19.48 37.04-19.48L37.04-19.48Q39.88-19.48 40.56-15.8L40.56-15.8Q40.8-14.72 40.8-13.52L40.8-13.52Q40.8-10.56 39.52-7.08L39.52-7.08Q37.72-2.12 34.8-0.56L34.8-0.56Q33.8 0 32.72 0L32.72 0Q30 0 30-3.6L30-3.6Q30-5.52 31.06-8.02 32.12-10.52 33.84-11.72L33.84-11.72Q34.2-11.92 34.44-11.56L34.44-11.56Q34.48-11.36 34.4-11.28L34.4-11.28Q32.88-10.08 32-7.76 31.12-5.44 31.12-3.68ZM56.23-11.48L56.23-11.48Q54.72-11.48 54.72-14.8L54.72-14.8Q54.72-16.68 55.44-18.32L55.44-18.32Q52.72-15.96 49.36-9.54 45.99-3.12 45.99-1.16L45.99-1.16Q45.99-0.68 45.36-0.68L45.36-0.68Q44.2-0.68 44.2-3.84L44.2-3.84Q44.2-9.8 45.4-14.64 46.59-19.48 48.31-19.48L48.31-19.48Q49.08-19.48 49.08-18.6L49.08-18.6Q47.23-12.76 46.44-6.64L46.44-6.64 46.72-6.64Q49.95-14.12 53.88-18.32L53.88-18.32Q56.12-20.72 57.95-20.72L57.95-20.72Q58.36-20.72 58.62-20.48 58.88-20.24 58.88-19.88L58.88-19.88Q58.59-19.6 58.2-19.04 57.8-18.48 57.12-16.38 56.44-14.28 56.44-11.8L56.44-11.8Q56.44-11.48 56.23-11.48ZM62.19 0L62.19 0Q58.91 0 58.91-5.16L58.91-5.16Q58.91-8.24 60.43-11.92L60.43-11.92Q62.55-17.08 65.99-18.96L65.99-18.96Q67.47-19.76 68.75-19.76 70.03-19.76 70.77-19.2 71.51-18.64 71.71-18.08L71.71-18.08 71.95-17.56Q71.83-16.88 71.27-16.88L71.27-16.88Q70.63-16.88 70.53-17.18 70.43-17.48 70.31-17.7 70.19-17.92 69.75-18.3 69.31-18.68 68.75-18.68L68.75-18.68Q66.15-18.68 64.03-14L64.03-14Q61.63-8.6 61.63-3.84L61.63-3.84Q61.63-1.44 62.59-1.44L62.59-1.44Q63.35-1.44 64.73-3.14 66.11-4.84 67.63-7.4L67.63-7.4Q70.27-11.8 71.91-15.04L71.91-15.04Q73.27-17.92 74.71-17.92L74.71-17.92Q75.47-17.92 75.47-17L75.47-17Q75.11-16.24 74.55-14.84 73.99-13.44 73.07-9.28 72.15-5.12 72.15-1 72.15 3.12 73.39 3.12L73.39 3.12Q73.87 3.12 74.27 2.7 74.67 2.28 74.99 1.44L74.99 1.44Q75.11 1 75.55 1L75.55 1Q75.71 1 75.79 1.12 75.87 1.24 75.79 1.52 75.71 1.8 75.51 2.3 75.31 2.8 74.65 3.64 73.99 4.48 73.27 4.48L73.27 4.48Q71.59 4.48 70.69 2.28 69.79 0.08 69.79-2.92 69.79-5.92 70.23-8.68L70.23-8.68 69.83-8.68Q64.75 0 62.19 0ZM85.27-11.6Q83.15-7.76 81.97-4.8 80.79-1.84 80.79-1.3 80.79-0.76 80.23-0.76L80.23-0.76Q79.03-0.76 79.03-3.96L79.03-3.96Q79.03-10.32 80.31-16.74 81.59-23.16 83.35-27.02 85.11-30.88 86.63-30.88L86.63-30.88Q87.27-30.88 87.27-30.24L87.27-30.24Q85.15-25.56 83.73-19.56 82.31-13.56 81.35-6.76L81.35-6.76 81.63-6.76Q86.71-19.24 91.59-19.24L91.59-19.24Q93.63-19.24 93.63-17.28L93.63-17.28Q93.35-16.36 92.91-14.86 92.47-13.36 91.75-9.48 91.03-5.6 91.03-2.68L91.03-2.68Q91.03 1.56 92.27 1.56L92.27 1.56Q92.71 1.56 93.15 1.18 93.59 0.8 93.75 0.8L93.75 0.8Q94.31 0.8 93.71 1.68L93.71 1.68Q93.55 1.96 93.01 2.44 92.47 2.92 91.95 2.92L91.95 2.92Q90.39 2.92 89.53 0.74 88.67-1.44 88.67-4.92L88.67-4.92Q88.67-10.8 90.43-17.04L90.43-17.04Q90.51-17.64 89.95-17.56L89.95-17.56Q89.67-17.52 89.39-17.24L89.39-17.24Q87.39-15.44 85.27-11.6ZM97.23-3.4L97.23-3.4Q97.23-9.32 98.45-13.96 99.67-18.6 101.55-18.6L101.55-18.6Q102.47-18.6 102.47-17.6L102.47-17.6Q102.07-16.56 101.47-14.84 100.87-13.12 99.89-8.62 98.91-4.12 98.91-0.6L98.91-0.6Q98.91-0.04 98.31-0.04L98.31-0.04Q97.23-0.04 97.23-3.4ZM103.07-23.04L102.59-22.36Q101.75-22.36 101.75-23.96L101.75-23.96Q101.75-24.92 102.27-25.98 102.79-27.04 103.75-27.04L103.75-27.04Q104.55-27.04 104.55-26.12L104.55-26.12Q104.55-25.2 103.07-23.04L103.07-23.04ZM114.7-4.88L114.7-4.88Q114.7-9.8 116.5-17.32L116.5-17.32Q116.63-17.72 116.27-17.68L116.27-17.68Q115.98-17.64 115.75-17.44L115.75-17.44Q113.98-15.96 111.86-11.96 109.75-7.96 108.47-4.66 107.19-1.36 107.19-0.8L107.19-0.8Q107.19-0.32 106.59-0.32L106.59-0.32Q105.39-0.32 105.39-3.48L105.39-3.48Q105.39-9.48 106.59-14.3 107.78-19.12 109.5-19.12L109.5-19.12Q110.27-19.12 110.27-18.28L110.27-18.28Q108.42-12.48 107.63-6.36L107.63-6.36 107.98-6.36Q113.27-19.56 117.7-19.56L117.7-19.56Q119.63-19.56 119.63-17.68L119.63-17.68Q117.75-12.08 116.91-6.64L116.91-6.64 117.22-6.64Q118.55-9.44 119.89-11.74 121.22-14.04 123.03-16.02 124.83-18 126.27-18L126.27-18Q128.19-18 128.19-16.16L128.19-16.16Q126.11-9.24 126.11-2.68L126.11-2.68Q126.11 1.56 127.39 1.56L127.39 1.56Q127.83 1.56 128.26 1.18 128.71 0.8 128.87 0.8L128.87 0.8Q129.43 0.8 128.82 1.68L128.82 1.68Q128.66 1.96 128.13 2.44 127.59 2.92 127.06 2.92L127.06 2.92Q125.5 2.92 124.65 0.74 123.78-1.44 123.78-4.92L123.78-4.92Q123.78-11.04 125.06-15.68L125.06-15.68Q125.15-15.96 124.87-15.96L124.87-15.96Q124.63-15.92 124.39-15.72L124.39-15.72Q122.11-13.76 119.31-8.46 116.5-3.16 116.5-2.2L116.5-2.2Q116.5-1.72 115.87-1.72L115.87-1.72Q114.7-1.72 114.7-4.88ZM164.66-18.44L164.66-18.44Q169.42-16.92 169.42-10.64L169.42-10.64Q169.42-5.4 164.96-0.38 160.5 4.64 152.7 4.64L152.7 4.64Q146.58 4.64 144.74 1.08L144.74 1.08Q144.1-0.12 144.1-1.38 144.1-2.64 144.74-3.96L144.74-3.96Q145.94-6.52 148.22-6.52L148.22-6.52Q148.42-6.52 148.5-6.3 148.58-6.08 148.48-5.84 148.38-5.6 148.18-5.6L148.18-5.6Q146.82-5.6 145.9-3.84L145.9-3.84Q145.26-2.68 145.26-1.64 145.26-0.6 145.74 0.36L145.74 0.36Q147.14 3.08 151.98 3.08L151.98 3.08Q158.06 3.08 162.54-2.04L162.54-2.04Q166.02-5.96 166.82-10.64L166.82-10.64Q167.02-11.76 167.02-12.72L167.02-12.72Q167.02-15.48 165.38-16.84L165.38-16.84Q164.5-17.56 163.22-17.68L163.22-17.68Q161.06-16.76 158.58-16.76L158.58-16.76Q158.3-16.76 158.3-17.3 158.3-17.84 158.58-17.84L158.58-17.84Q162.62-17.84 165.66-21.64L165.66-21.64Q167.9-24.48 168.06-27.2L168.06-27.2Q167.98-29.6 166.18-29.72L166.18-29.72Q164.22-29.72 161.98-26.92 159.74-24.12 157.94-20.12 156.14-16.12 154.64-11.94 153.14-7.76 152.3-4.78 151.46-1.8 151.46-1.28 151.46-0.76 150.9-0.76L150.9-0.76Q149.7-0.76 149.7-3.96L149.7-3.96Q149.7-11.68 151.44-18.96 153.18-26.24 155.3-28.68L155.3-28.68Q149.58-27.88 146.02-24.64L146.02-24.64Q143.98-22.84 143.98-20.72L143.98-20.72Q143.98-19.68 144.78-19.68L144.78-19.68Q144.62-19.12 143.9-19.12 143.18-19.12 142.64-19.68 142.1-20.24 142.1-21.24L142.1-21.24Q142.1-23.6 144.96-25.62 147.82-27.64 151.14-28.62 154.46-29.6 156.78-29.6L156.78-29.6Q157.42-29.6 157.42-28.96L157.42-28.96Q154.82-22.92 152.7-11.32L152.7-11.32 153.02-11.32Q155.34-18.56 158.5-24.28L158.5-24.28Q160.18-27.36 162.22-29.14 164.26-30.92 166.38-30.92L166.38-30.92Q169.74-30.92 170.38-28.2L170.38-28.2Q170.5-27.64 170.5-27L170.5-27Q170.5-24.84 168.84-22.38 167.18-19.92 164.66-18.44ZM176.02 0L176.02 0Q172.74 0 172.74-5.16L172.74-5.16Q172.74-8.24 174.26-11.92L174.26-11.92Q176.38-17.08 179.82-18.96L179.82-18.96Q181.3-19.76 182.58-19.76 183.86-19.76 184.6-19.2 185.34-18.64 185.54-18.08L185.54-18.08 185.78-17.56Q185.66-16.88 185.1-16.88L185.1-16.88Q184.46-16.88 184.36-17.18 184.26-17.48 184.14-17.7 184.02-17.92 183.58-18.3 183.14-18.68 182.58-18.68L182.58-18.68Q179.98-18.68 177.86-14L177.86-14Q175.46-8.6 175.46-3.84L175.46-3.84Q175.46-1.44 176.42-1.44L176.42-1.44Q177.18-1.44 178.56-3.14 179.94-4.84 181.46-7.4L181.46-7.4Q184.1-11.8 185.74-15.04L185.74-15.04Q187.1-17.92 188.54-17.92L188.54-17.92Q189.3-17.92 189.3-17L189.3-17Q188.94-16.24 188.38-14.84 187.82-13.44 186.9-9.28 185.98-5.12 185.98-1 185.98 3.12 187.22 3.12L187.22 3.12Q187.7 3.12 188.1 2.7 188.5 2.28 188.82 1.44L188.82 1.44Q188.94 1 189.38 1L189.38 1Q189.54 1 189.62 1.12 189.7 1.24 189.62 1.52 189.54 1.8 189.34 2.3 189.14 2.8 188.48 3.64 187.82 4.48 187.1 4.48L187.1 4.48Q185.42 4.48 184.52 2.28 183.62 0.08 183.62-2.92 183.62-5.92 184.06-8.68L184.06-8.68 183.66-8.68Q178.58 0 176.02 0ZM194.62-1.36L194.62-1.36Q194.62 1.44 196.41 1.44L196.41 1.44Q198.09 1.44 199.56-1.32 201.02-4.08 201.02-8.28L201.02-8.28Q201.02-10.32 200.28-14.04 199.53-17.76 199.53-18.9 199.53-20.04 199.62-20.4L199.62-20.4Q199.09-19.56 196.62-14.82 194.14-10.08 192.22-7.32L192.22-7.32Q192.06-7.16 191.78-7.22 191.5-7.28 191.31-7.46 191.14-7.64 191.14-7.72 191.14-7.8 191.18-7.84L191.18-7.84Q193.06-10.56 195.56-15.34 198.06-20.12 199.74-22.48 201.42-24.84 203.06-24.84L203.06-24.84Q203.9-24.84 203.9-24.12L203.9-24.12Q203.9-23.64 203.22-22.84L203.22-22.84Q201.06-20.4 201.06-17.84L201.06-17.84Q201.06-16.32 202.22-11.98 203.38-7.64 203.38-5.68L203.38-5.68Q203.38-2.16 201.42 0.3 199.46 2.76 196.97 2.76L196.97 2.76Q193.46 2.76 193.46-1.28L193.46-1.28Q193.46-4.32 195.31-7.64 197.18-10.96 199.06-12.12L199.06-12.12Q199.42-12.36 199.52-11.84 199.62-11.32 199.38-11.16L199.38-11.16Q197.25-9.96 195.69-6.04L195.69-6.04Q194.62-3.28 194.62-1.36ZM207.97-3.4L207.97-3.4Q207.97-9.32 209.19-13.96 210.41-18.6 212.29-18.6L212.29-18.6Q213.21-18.6 213.21-17.6L213.21-17.6Q212.81-16.56 212.21-14.84 211.61-13.12 210.63-8.62 209.65-4.12 209.65-0.6L209.65-0.6Q209.65-0.04 209.05-0.04L209.05-0.04Q207.97-0.04 207.97-3.4ZM213.81-23.04L213.33-22.36Q212.49-22.36 212.49-23.96L212.49-23.96Q212.49-24.92 213.01-25.98 213.53-27.04 214.49-27.04L214.49-27.04Q215.29-27.04 215.29-26.12L215.29-26.12Q215.29-25.2 213.81-23.04L213.81-23.04ZM218.01-17.32L218.01-17.32Q216.45-17.32 216.45-18.6L216.45-18.6Q216.45-19.08 216.85-19.2L216.85-19.2Q216.89-19.24 216.97-19.24L216.97-19.24Q217.21-18.96 217.87-18.96 218.53-18.96 219.97-19.04L219.97-19.04Q221.85-24.12 223.57-24.12L223.57-24.12Q224.25-24.12 224.25-23.36L224.25-23.36Q223.61-21.76 222.81-19.24L222.81-19.24Q226.77-19.68 227.97-19.68L227.97-19.68Q228.29-19.68 228.29-19.36L228.29-19.36Q228.29-18.72 227.45-18.72L227.45-18.72Q227.01-18.72 222.37-17.88L222.37-17.88Q219.21-7.88 219.21-1.68 219.21 4.52 221.69 4.52L221.69 4.52Q222.69 4.52 223.57 3.66 224.45 2.8 224.81 1.96L224.81 1.96Q224.97 1.52 225.49 1.72L225.49 1.72Q225.73 1.8 225.65 1.96L225.65 1.96Q225.41 2.48 225.05 3.16 224.69 3.84 223.65 4.84 222.61 5.84 221.53 5.84L221.53 5.84Q216.77 5.84 216.77-2.44L216.77-2.44Q216.77-9.44 219.37-17.4L219.37-17.4Q218.81-17.32 218.01-17.32Z" opacity="1" transform="matrix(1,0,0,1,0,0)" fill="#dedede" class="undefined-text-0" data-fill-palette-color="quaternary" id="text-0"></path></svg></g></svg></g><g transform="matrix(1,0,0,1,0,73.31036844835994)"><svg viewBox="0 0 224 18.91138954008644" height="18.91138954008644" width="224"><g transform="matrix(1,0,0,1,0,0)"><svg width="224" viewBox="2.9800000190734863 -37.7400016784668 470.05096435546875 39.45000076293945" height="18.91138954008644" data-palette-color="#374151"><g class="undefined-text-1" data-fill-palette-color="secondary" id="text-1"><path d="M19.04-35.25L19.04-35.25Q19.43-34.67 19.7-34.06 19.97-33.45 19.97-33.2L19.97-33.2Q19.97-32.86 19.87-32.64 19.78-32.42 19.58-32.13L19.58-32.13Q17.72-31.3 15.84-30.42 13.96-29.54 12.01-28.76L12.01-28.76Q11.52-28.56 11.08-28.37 10.64-28.17 10.11-27.98L10.11-27.98Q10.01-27.88 9.69-27.81 9.38-27.73 9.13-27.73L9.13-27.73Q9.23-26.76 9.25-25.73 9.28-24.71 9.33-23.68L9.33-23.68Q9.33-23.39 9.42-23.12 9.52-22.85 9.52-22.56L9.52-22.56Q9.62-21.63 9.62-20.75 9.62-19.87 9.72-18.95L9.72-18.95Q11.52-19.73 13.31-20.53 15.09-21.34 16.89-22.12L16.89-22.12Q17.19-22.07 17.53-22.02 17.87-21.97 18.16-21.83L18.16-21.83Q18.26-21.73 18.36-21.58 18.46-21.44 18.6-21.34L18.6-21.34Q18.6-21.09 18.92-20.63 19.24-20.17 19.24-19.63L19.24-19.63Q19.24-19.53 19.38-19.31 19.53-19.09 19.58-18.99L19.58-18.99Q19.58-18.51 19.53-18.46L19.53-18.46Q19.87-18.21 20-17.82 20.12-17.43 20.12-17.04L20.12-17.04Q19.24-16.06 18.38-15.72 17.53-15.38 16.65-14.99L16.65-14.99Q16.41-14.84 16.11-14.7 15.82-14.55 15.53-14.4L15.53-14.4Q15.14-14.26 14.77-14.14 14.4-14.01 14.01-13.82L14.01-13.82Q13.43-13.48 12.7-13.04 11.96-12.6 11.38-12.5L11.38-12.5Q10.99-12.4 10.72-12.38 10.45-12.35 10.11-12.11L10.11-12.11Q10.06-11.52 10.08-10.96 10.11-10.4 10.11-9.86L10.11-9.86Q10.11-9.28 10.03-8.72 9.96-8.15 9.96-7.57L9.96-7.57Q9.96-6.59 9.86-5.64 9.77-4.69 9.77-3.76L9.77-3.76Q9.77-3.17 9.81-2.61 9.86-2.05 9.86-1.51L9.86-1.51Q9.86-1.22 9.77-0.98 9.67-0.73 9.57-0.49L9.57-0.49Q8.89-0.39 8.74-0.51 8.59-0.63 8.4-0.73L8.4-0.73Q8.15-0.73 8.08-0.54 8.01-0.34 7.76-0.24L7.76-0.24Q7.57-0.29 7.35-0.27 7.13-0.24 6.98-0.34L6.98-0.34Q6.59-0.2 6.27 0 5.96 0.2 5.57 0.29L5.57 0.29Q4.83 0.2 4.66 0.22 4.49 0.24 4.3 0.29L4.3 0.29Q3.96-0.05 3.98-0.56 4-1.07 3.71-1.46L3.71-1.46Q3.71-1.95 3.61-2.08 3.52-2.2 3.52-2.29L3.52-2.29Q3.52-2.44 3.54-2.61 3.56-2.78 3.56-2.98L3.56-2.98Q3.56-3.42 3.52-3.66L3.52-3.66Q3.56-3.96 3.61-4.57 3.66-5.18 3.71-5.83 3.76-6.49 3.76-7.13 3.76-7.76 3.76-8.15L3.76-8.15Q3.76-8.4 3.86-8.57 3.96-8.74 3.96-8.98L3.96-8.98Q3.96-9.38 3.93-9.69 3.91-10.01 3.91-10.35L3.91-10.35Q3.91-11.04 3.93-11.72 3.96-12.4 3.96-13.09L3.96-13.09Q3.96-15.19 3.74-17.21 3.52-19.24 3.52-21.29L3.52-21.29Q3.52-22.41 3.42-23.75 3.32-25.1 3.17-26.22L3.17-26.22Q3.17-26.46 3.1-26.64 3.03-26.81 3.03-27L3.03-27Q2.98-27.59 2.98-28.2 2.98-28.81 2.98-29.44L2.98-29.44Q2.98-29.83 2.98-30.54 2.98-31.25 2.98-32.01 2.98-32.76 3-33.45 3.03-34.13 3.08-34.42L3.08-34.42Q3.08-34.47 3.37-34.59 3.66-34.72 3.76-34.72L3.76-34.72Q4-34.72 4.15-34.57 4.3-34.42 4.49-34.28L4.49-34.28Q4.69-34.42 4.91-34.42 5.13-34.42 5.37-34.42L5.37-34.42Q6.1-34.57 6.27-34.4 6.45-34.23 6.54-34.23L6.54-34.23Q6.69-34.23 6.79-34.38 6.88-34.52 7.03-34.52L7.03-34.52Q7.42-34.52 7.5-34.33 7.57-34.13 7.76-34.13L7.76-34.13Q7.96-34.13 8.06-34.28 8.15-34.42 8.25-34.42L8.25-34.42Q8.4-34.42 8.54-34.35 8.69-34.28 8.84-34.28L8.84-34.28Q9.08-34.28 9.38-34.45 9.67-34.62 9.91-34.72L9.91-34.72Q10.3-34.81 10.62-34.96 10.94-35.11 11.28-35.21L11.28-35.21Q12.01-35.64 12.38-35.77 12.74-35.89 13.13-36.08L13.13-36.08Q13.96-36.47 14.72-36.84 15.48-37.21 16.31-37.55L16.31-37.55Q16.75-37.55 16.89-37.74L16.89-37.74Q17.24-37.6 17.77-37.7L17.77-37.7Q18.36-37.16 18.53-36.87 18.7-36.57 18.95-36.33L18.95-36.33Q19.24-35.94 19.34-35.94L19.34-35.94Q19.34-35.79 19.19-35.6 19.04-35.4 19.04-35.25ZM59.02-5.86L59.02-5.86Q58.54-5.81 58.44-5.91L58.44-5.91Q58.24-5.81 58.07-5.71 57.9-5.62 57.71-5.47L57.71-5.47Q57.02-5.22 56.36-4.83 55.7-4.44 55.02-4.1L55.02-4.1Q54.63-3.91 54.26-3.78 53.9-3.66 53.51-3.47L53.51-3.47Q52.92-3.17 52.34-2.86 51.75-2.54 51.11-2.29L51.11-2.29Q50.77-2.2 50.46-2.1 50.14-2 49.8-1.9L49.8-1.9Q49.41-1.76 49.09-1.59 48.77-1.42 48.43-1.27L48.43-1.27Q48.18-1.17 47.92-1.1 47.65-1.03 47.35-0.88L47.35-0.88Q47.11-0.78 46.94-0.63 46.77-0.49 46.52-0.39L46.52-0.39Q46.13-0.24 45.72-0.1 45.3 0.05 44.91 0.24L44.91 0.24Q44.52 0.44 44.35 0.61 44.18 0.78 43.69 0.93L43.69 0.93Q43.2 1.22 43.16 1.25 43.11 1.27 43.01 1.27L43.01 1.27Q42.86 1.37 42.74 1.44 42.62 1.51 42.47 1.61L42.47 1.61Q42.18 1.61 41.89 1.66 41.59 1.71 41.3 1.71L41.3 1.71Q40.96 1.51 40.84 1.32 40.71 1.12 40.71 0.78L40.71 0.78Q40.52 0.54 40.35 0.24 40.18-0.05 39.98-0.29L39.98-0.29Q39.64-0.1 39.57-0.32 39.49-0.54 39.44-0.81 39.4-1.07 39.35-1.34 39.3-1.61 39.25-1.71L39.25-1.71Q39-2.64 39-3.08L39-3.08Q39-3.32 39.1-3.39 39.2-3.47 39.2-3.61L39.2-3.61Q39.25-4.1 39.3-4.74 39.35-5.37 39.35-6.05 39.35-6.74 39.35-7.42 39.35-8.11 39.35-8.64L39.35-8.64Q39.35-10.84 39.3-12.92 39.25-14.99 39.25-17.09L39.25-17.09Q39.25-18.07 39.3-19.04 39.35-20.02 39.35-21L39.35-21Q39.35-23.39 39.42-25.73 39.49-28.08 39.49-30.47L39.49-30.47Q39.49-31.45 39.4-32.45 39.3-33.45 39.25-34.47L39.25-34.47Q39.2-35.01 39.3-35.33 39.4-35.64 39.35-35.99L39.35-35.99Q39.49-36.04 39.88-36.04 40.27-36.04 40.69-36.06 41.1-36.08 41.47-36.11 41.84-36.13 41.93-36.18L41.93-36.18Q42.28-35.94 42.62-35.94L42.62-35.94Q42.96-35.94 43.25-36.23L43.25-36.23Q43.5-36.13 43.52-36.08 43.55-36.04 43.79-36.04L43.79-36.04Q44.23-36.08 44.47-36.11 44.72-36.13 44.91-36.13L44.91-36.13Q45.45-35.74 45.57-35.18 45.69-34.62 45.74-34.01 45.79-33.4 45.82-32.79 45.84-32.18 45.84-31.79L45.84-31.79Q45.84-31.49 45.89-31.18 45.94-30.86 45.94-30.52L45.94-30.52Q45.94-30.27 45.91-30.03 45.89-29.79 45.89-29.54L45.89-29.54Q45.89-28.13 45.91-26.66 45.94-25.2 45.94-23.78L45.94-23.78Q45.94-21.24 45.87-18.68 45.79-16.11 45.79-13.57L45.79-13.57Q45.79-13.04 45.84-12.5 45.89-11.96 45.89-11.43L45.89-11.43Q45.89-11.13 45.87-10.84 45.84-10.55 45.84-10.25L45.84-10.25Q45.84-8.45 45.99-6.64L45.99-6.64Q46.18-6.69 46.82-6.91 47.45-7.13 48.14-7.4 48.82-7.67 49.41-7.93 49.99-8.2 50.14-8.35L50.14-8.35Q50.33-8.35 50.67-8.5 51.02-8.64 51.41-8.86 51.8-9.08 52.16-9.28 52.53-9.47 52.68-9.62L52.68-9.62Q52.63-10.6 52.63-11.6 52.63-12.6 52.63-13.57L52.63-13.57Q52.63-16.26 52.7-18.95 52.77-21.63 52.77-24.41L52.77-24.41Q52.77-26.12 52.73-27.83 52.68-29.54 52.68-31.25L52.68-31.25Q52.68-31.79 52.7-32.35 52.73-32.91 52.73-33.45L52.73-33.45Q52.73-34.28 52.7-35.08 52.68-35.89 52.77-36.72L52.77-36.72Q53.26-36.96 53.31-36.96L53.31-36.96Q53.6-36.96 53.73-36.96 53.85-36.96 53.95-36.87L53.95-36.87Q54.09-36.82 54.21-36.84 54.34-36.87 54.48-36.87L54.48-36.87Q54.73-36.87 54.97-36.77 55.22-36.67 55.46-36.67L55.46-36.67Q55.85-36.72 55.88-36.57 55.9-36.43 56.05-36.43L56.05-36.43Q56.44-36.57 56.58-36.43L56.58-36.43Q56.73-36.33 57.12-36.16 57.51-35.99 57.95-35.79 58.39-35.6 58.73-35.42 59.07-35.25 59.07-35.11L59.07-35.11Q59.22-34.33 59.17-33.45 59.12-32.57 59.12-31.79L59.12-31.79Q59.12-31.1 59.17-30.42 59.22-29.74 59.22-29.05L59.22-29.05Q59.22-28.66 59.22-28.27 59.22-27.88 59.27-27.54L59.27-27.54Q59.32-27.29 59.32-27.12 59.32-26.95 59.32-26.76L59.32-26.76Q59.32-26.51 59.42-26.12L59.42-26.12Q59.37-25.88 59.37-25.61 59.37-25.34 59.37-25.1L59.37-25.1Q59.37-24.41 59.42-23.68 59.46-22.95 59.46-22.22L59.46-22.22Q59.46-21.73 59.39-21.29 59.32-20.85 59.32-20.41L59.32-20.41 59.37-19.48Q59.37-18.99 59.42-18.51 59.46-18.02 59.46-17.48L59.46-17.48Q59.46-17.24 59.44-16.99 59.42-16.75 59.37-16.5L59.37-16.5Q59.32-16.26 59.32-15.97 59.32-15.67 59.32-15.43L59.32-15.43Q59.32-14.75 59.37-14.06 59.42-13.38 59.42-12.7L59.42-12.7Q59.42-12.26 59.39-11.84 59.37-11.43 59.37-10.99L59.37-10.99Q59.37-10.11 59.44-9.18 59.51-8.25 59.51-7.37L59.51-7.37Q59.51-6.98 59.42-6.54 59.32-6.1 59.02-5.86ZM98.32-8.35L98.32-8.35Q98.66-7.91 98.74-7.64 98.81-7.37 98.91-7.1 99.01-6.84 99.08-6.59 99.15-6.35 99.15-6.3L99.15-6.3Q99.15-5.96 99.03-5.74 98.91-5.52 98.66-5.18L98.66-5.18Q96.71-4.44 94.81-3.74 92.9-3.03 90.9-2.34L90.9-2.34Q90.36-2.2 89.92-2.03 89.48-1.86 88.95-1.76L88.95-1.76Q88.85-1.66 88.63-1.59 88.41-1.51 88.12-1.42 87.82-1.32 87.56-1.25 87.29-1.17 87.19-1.17L87.19-1.17Q86.8-1.07 86.34-1.1 85.87-1.12 85.43-1.07L85.43-1.07Q85.19-1.03 85.09-0.83 84.99-0.63 84.87-0.42 84.75-0.2 84.5-0.02 84.26 0.15 83.82 0.15L83.82 0.15Q83.38 0.15 82.94 0.1 82.5 0.05 82.01-0.15L82.01-0.15Q81.92-0.29 81.94-0.51 81.97-0.73 81.87-0.88L81.87-0.88Q81.43-0.93 81.18-0.81 80.94-0.68 80.7-0.63L80.7-0.63Q80.55-0.83 80.48-1.1 80.4-1.37 80.21-1.56L80.21-1.56Q80.16-1.81 80.16-2.05 80.16-2.29 80.16-2.54L80.16-2.54Q80.16-2.88 80.18-3.34 80.21-3.81 80.35-4.05L80.35-4.05Q80.5-6.84 80.5-9.62 80.5-12.4 80.5-15.19L80.5-15.19Q80.5-15.48 80.5-15.94 80.5-16.41 80.48-16.89 80.45-17.38 80.43-17.8 80.4-18.21 80.35-18.41L80.35-18.41Q80.4-18.75 80.4-19.07 80.4-19.38 80.4-19.73L80.4-19.73Q80.4-20.02 80.4-20.26 80.4-20.51 80.3-20.75L80.3-20.75Q80.35-20.95 80.35-21.29L80.35-21.29Q80.35-21.53 80.3-21.78 80.26-22.02 80.26-22.27L80.26-22.27Q80.26-22.66 80.28-23.02 80.3-23.39 80.3-23.78L80.3-23.78Q80.3-25.05 80.18-26.29 80.06-27.54 80.06-28.81L80.06-28.81Q80.06-30.47 80.04-32.13 80.01-33.79 79.96-35.45L79.96-35.45Q80.16-35.94 80.16-36.28L80.16-36.28Q80.84-36.62 81.23-36.52 81.62-36.43 82.01-36.43L82.01-36.43Q82.26-36.43 82.45-36.47 82.65-36.52 82.84-36.62L82.84-36.62Q83.09-36.57 83.26-36.5 83.43-36.43 83.67-36.43L83.67-36.43Q84.41-36.57 84.48-36.47 84.55-36.38 84.7-36.28L84.7-36.28Q84.89-36.33 85.02-36.45 85.14-36.57 85.33-36.57L85.33-36.57Q85.63-36.57 85.77-36.21 85.92-35.84 86.12-35.6L86.12-35.6Q86.12-35.06 86.31-34.62L86.31-34.62Q86.41-32.62 86.38-30.66 86.36-28.71 86.51-26.76L86.51-26.76Q86.55-25.88 86.63-24.93 86.7-23.97 86.7-23.1L86.7-23.1Q86.7-21.63 86.73-20.14 86.75-18.65 86.75-17.14L86.75-17.14Q86.75-16.89 86.77-16.7 86.8-16.5 86.8-16.26L86.8-16.26Q86.8-15.67 86.75-15.14 86.7-14.6 86.7-14.06L86.7-14.06 86.7-10.25Q86.7-9.77 86.68-9.25 86.65-8.74 86.7-8.25L86.7-8.25 86.9-7.67Q87.43-7.86 88-8.08 88.56-8.3 89.19-8.4L89.19-8.4Q89.58-8.5 89.92-8.59 90.27-8.69 90.66-8.79L90.66-8.79Q91.34-9.18 91.73-9.33 92.12-9.47 92.51-9.62L92.51-9.62Q93.34-9.91 94.12-10.23 94.9-10.55 95.73-10.84L95.73-10.84Q96.13-10.74 96.37-10.94L96.37-10.94Q96.86-10.84 97.25-10.84L97.25-10.84Q97.79-10.3 97.91-10.01 98.03-9.72 98.27-9.47L98.27-9.47Q98.18-9.23 98.3-9.18 98.42-9.13 98.47-8.94L98.47-8.94Q98.66-8.84 98.52-8.67 98.37-8.5 98.32-8.35ZM134.69-8.35L134.69-8.35Q135.03-7.91 135.11-7.64 135.18-7.37 135.28-7.1 135.37-6.84 135.45-6.59 135.52-6.35 135.52-6.3L135.52-6.3Q135.52-5.96 135.4-5.74 135.28-5.52 135.03-5.18L135.03-5.18Q133.08-4.44 131.18-3.74 129.27-3.03 127.27-2.34L127.27-2.34Q126.73-2.2 126.29-2.03 125.85-1.86 125.32-1.76L125.32-1.76Q125.22-1.66 125-1.59 124.78-1.51 124.49-1.42 124.19-1.32 123.92-1.25 123.66-1.17 123.56-1.17L123.56-1.17Q123.17-1.07 122.7-1.1 122.24-1.12 121.8-1.07L121.8-1.07Q121.56-1.03 121.46-0.83 121.36-0.63 121.24-0.42 121.12-0.2 120.87-0.02 120.63 0.15 120.19 0.15L120.19 0.15Q119.75 0.15 119.31 0.1 118.87 0.05 118.38-0.15L118.38-0.15Q118.28-0.29 118.31-0.51 118.33-0.73 118.24-0.88L118.24-0.88Q117.8-0.93 117.55-0.81 117.31-0.68 117.06-0.63L117.06-0.63Q116.92-0.83 116.84-1.1 116.77-1.37 116.58-1.56L116.58-1.56Q116.53-1.81 116.53-2.05 116.53-2.29 116.53-2.54L116.53-2.54Q116.53-2.88 116.55-3.34 116.58-3.81 116.72-4.05L116.72-4.05Q116.87-6.84 116.87-9.62 116.87-12.4 116.87-15.19L116.87-15.19Q116.87-15.48 116.87-15.94 116.87-16.41 116.84-16.89 116.82-17.38 116.8-17.8 116.77-18.21 116.72-18.41L116.72-18.41Q116.77-18.75 116.77-19.07 116.77-19.38 116.77-19.73L116.77-19.73Q116.77-20.02 116.77-20.26 116.77-20.51 116.67-20.75L116.67-20.75Q116.72-20.95 116.72-21.29L116.72-21.29Q116.72-21.53 116.67-21.78 116.62-22.02 116.62-22.27L116.62-22.27Q116.62-22.66 116.65-23.02 116.67-23.39 116.67-23.78L116.67-23.78Q116.67-25.05 116.55-26.29 116.43-27.54 116.43-28.81L116.43-28.81Q116.43-30.47 116.4-32.13 116.38-33.79 116.33-35.45L116.33-35.45Q116.53-35.94 116.53-36.28L116.53-36.28Q117.21-36.62 117.6-36.52 117.99-36.43 118.38-36.43L118.38-36.43Q118.63-36.43 118.82-36.47 119.02-36.52 119.21-36.62L119.21-36.62Q119.46-36.57 119.63-36.5 119.8-36.43 120.04-36.43L120.04-36.43Q120.77-36.57 120.85-36.47 120.92-36.38 121.07-36.28L121.07-36.28Q121.26-36.33 121.39-36.45 121.51-36.57 121.7-36.57L121.7-36.57Q122-36.57 122.14-36.21 122.29-35.84 122.48-35.6L122.48-35.6Q122.48-35.06 122.68-34.62L122.68-34.62Q122.78-32.62 122.75-30.66 122.73-28.71 122.87-26.76L122.87-26.76Q122.92-25.88 123-24.93 123.07-23.97 123.07-23.1L123.07-23.1Q123.07-21.63 123.09-20.14 123.12-18.65 123.12-17.14L123.12-17.14Q123.12-16.89 123.14-16.7 123.17-16.5 123.17-16.26L123.17-16.26Q123.17-15.67 123.12-15.14 123.07-14.6 123.07-14.06L123.07-14.06 123.07-10.25Q123.07-9.77 123.05-9.25 123.02-8.74 123.07-8.25L123.07-8.25 123.26-7.67Q123.8-7.86 124.36-8.08 124.93-8.3 125.56-8.4L125.56-8.4Q125.95-8.5 126.29-8.59 126.63-8.69 127.02-8.79L127.02-8.79Q127.71-9.18 128.1-9.33 128.49-9.47 128.88-9.62L128.88-9.62Q129.71-9.91 130.49-10.23 131.27-10.55 132.1-10.84L132.1-10.84Q132.49-10.74 132.74-10.94L132.74-10.94Q133.23-10.84 133.62-10.84L133.62-10.84Q134.15-10.3 134.28-10.01 134.4-9.72 134.64-9.47L134.64-9.47Q134.54-9.23 134.67-9.18 134.79-9.13 134.84-8.94L134.84-8.94Q135.03-8.84 134.89-8.67 134.74-8.5 134.69-8.35Z" fill="#374151" data-fill-palette-color="primary"></path><path d="M183.965-36.33L183.965-36.33Q184.305-35.69 184.305-34.86L184.305-34.86Q184.305-34.13 184.015-33.3 183.715-32.47 183.085-32.03L183.085-32.03Q182.645-31.05 182.235-30.44 181.815-29.83 181.425-29.25L181.425-29.25Q181.275-28.91 181.135-28.59 180.985-28.27 180.745-27.93L180.745-27.93Q180.595-27.69 180.105-26.95 179.615-26.22 179.105-25.42 178.595-24.61 178.205-23.88 177.815-23.14 177.815-22.95L177.815-22.95Q177.815-22.75 178.275-22.46 178.735-22.17 178.885-22.02L178.885-22.02Q179.125-21.78 179.345-21.53 179.565-21.29 179.815-21.04L179.815-21.04Q180.355-20.61 180.865-20.17 181.375-19.73 181.915-19.19L181.915-19.19Q182.935-18.26 184.065-17.43 185.185-16.6 186.065-15.48L186.065-15.48Q186.895-15.23 187.135-14.31 187.385-13.38 187.285-12.55L187.285-12.55Q187.385-12.4 187.455-12.26 187.525-12.11 187.625-11.91L187.625-11.91Q187.625-11.13 187.405-10.77 187.185-10.4 186.945-9.86L186.945-9.86Q186.695-9.38 186.625-8.89 186.555-8.4 186.305-8.01L186.305-8.01Q186.215-7.86 186.035-7.76 185.865-7.67 185.775-7.47L185.775-7.47Q185.575-7.13 185.455-6.67 185.335-6.2 185.135-5.81L185.135-5.81Q184.985-5.42 184.765-5.03 184.545-4.64 184.405-4.25L184.405-4.25Q184.305-4 184.235-3.66 184.155-3.32 183.765-3.17L183.765-3.17Q183.525-2.29 183.105-1.46 182.695-0.63 182.455 0.24L182.455 0.24Q182.015 0.39 181.355 0.81 180.695 1.22 180.305 1.22L180.305 1.22Q180.155 1.22 180.055 1.07 179.965 0.93 179.765 0.83L179.765 0.83Q179.665 0.78 179.495 0.83 179.325 0.88 179.225 0.88L179.225 0.88Q178.985 0.88 178.865 0.68 178.735 0.49 178.545 0.39L178.545 0.39Q178.395 0.44 178.255 0.49 178.105 0.54 177.955 0.54L177.955 0.54Q177.615 0.54 177.565 0.37 177.515 0.2 177.275 0.05L177.275 0.05Q176.685-0.24 176.595-0.49 176.495-0.73 176.295-0.83L176.295-0.83Q176.635-2.1 177.225-3.25 177.815-4.39 178.345-5.57L178.345-5.57Q178.495-5.96 178.715-6.3 178.935-6.64 179.125-7.03L179.125-7.03Q179.275-7.37 179.565-7.91 179.865-8.45 180.105-9.03 180.355-9.62 180.545-10.13 180.745-10.64 180.745-10.99L180.745-10.99Q180.745-11.67 180.355-12.01L180.355-12.01Q178.935-13.18 177.685-14.4 176.445-15.63 175.075-16.89L175.075-16.89Q174.195-17.68 173.175-18.51L173.175-18.51Q172.975-18.65 172.875-18.95 172.785-19.24 172.585-19.48L172.585-19.48Q172.485-19.68 172.295-19.78 172.095-19.87 172.005-20.07L172.005-20.07Q171.855-20.26 171.805-20.53 171.755-20.8 171.515-20.95L171.515-20.95Q171.265-21.19 170.925-21.24 170.585-21.29 170.345-21.53L170.345-21.53Q170.485-21.68 170.465-21.85 170.435-22.02 170.435-22.17L170.435-22.17Q170.435-22.51 170.735-22.66 171.025-22.8 171.025-23.19L171.025-23.19Q171.215-23.58 171.315-23.68L171.315-23.68Q171.855-25 172.535-26.22 173.225-27.44 173.955-28.66L173.955-28.66Q174.195-29.05 174.415-29.42 174.635-29.79 174.885-30.18L174.885-30.18Q175.025-30.52 175.155-30.79 175.275-31.05 175.515-31.3L175.515-31.3Q176.205-32.08 176.665-32.76 177.125-33.45 177.375-34.42L177.375-34.42Q177.425-34.67 177.565-35.11 177.715-35.55 177.935-35.99 178.155-36.43 178.395-36.77 178.645-37.11 178.935-37.11L178.935-37.11Q179.175-37.11 179.645-36.91 180.105-36.72 180.445-36.62L180.445-36.62Q180.745-36.52 181.055-36.45 181.375-36.38 181.665-36.38L181.665-36.38Q181.865-36.38 182.055-36.5 182.255-36.62 182.495-36.62L182.495-36.62Q182.885-36.62 183.235-36.5 183.575-36.38 183.965-36.33ZM225.455-34.91L225.455-34.91Q225.365-34.72 225.385-34.52 225.415-34.33 225.415-34.08L225.415-34.08Q225.315-33.5 225.415-33.5 225.505-33.5 225.505-33.4L225.505-33.4 225.165-32.91Q225.165-32.62 225.045-32.37 224.925-32.13 224.975-31.79L224.975-31.79Q224.825-31.54 224.705-31.3 224.585-31.05 224.335-30.81L224.335-30.81 223.705-30.81Q223.165-30.81 222.555-30.74 221.945-30.66 221.355-30.66L221.355-30.66Q221.255-30.66 221.115-30.69 220.965-30.71 220.825-30.71L220.825-30.71Q220.725-30.71 220.575-30.69 220.425-30.66 220.235-30.66L220.235-30.66Q219.505-30.66 218.795-30.74 218.085-30.81 217.305-30.81L217.305-30.81Q217.105-30.81 216.915-30.81 216.715-30.81 216.475-30.76L216.475-30.76Q216.425-29.93 216.405-29.08 216.375-28.22 216.375-27.34L216.375-27.34Q216.375-27.1 216.325-26.83 216.275-26.56 216.275-26.32L216.275-26.32Q216.235-25.68 216.205-25.1 216.185-24.51 216.185-23.88L216.185-23.88Q216.185-22.51 216.205-21.14 216.235-19.78 216.275-18.36L216.275-18.36Q216.325-17.63 216.375-16.94 216.425-16.26 216.425-15.53L216.425-15.53Q216.425-13.87 216.375-12.23 216.325-10.6 216.325-8.94L216.325-8.94Q216.325-8.4 216.275-7.93 216.235-7.47 216.235-6.93L216.235-6.93Q216.235-5.81 216.275-4.69 216.325-3.56 216.325-2.44L216.325-2.44Q216.325-1.9 216.305-1.37 216.275-0.83 216.275-0.29L216.275-0.29Q216.035 0.1 215.935 0.39 215.835 0.68 215.355 0.68L215.355 0.68Q215.005 0.59 215.035 0.46 215.055 0.34 214.965 0.24L214.965 0.24Q214.525 0.2 214.305 0.32 214.085 0.44 213.785 0.54L213.785 0.54Q213.645 0.49 213.475 0.49 213.305 0.49 213.155 0.49L213.155 0.49Q213.055 0.49 212.955 0.56 212.865 0.63 212.515 0.63L212.515 0.63Q212.225 0.68 212.175 0.54 212.125 0.39 211.885 0.39L211.885 0.39Q211.645 0.54 211.325 0.61 211.005 0.68 210.715 0.68L210.715 0.68Q210.425 0.49 210.445 0.32 210.465 0.15 210.375-0.05L210.375-0.05Q210.325-0.15 210.205-0.32 210.075-0.49 209.985-0.59L209.985-0.59Q210.075-1.27 210.125-1.81 210.175-2.34 210.175-2.98L210.175-2.98Q210.175-4.25 210.075-5.47 209.985-6.69 209.985-7.96L209.985-7.96Q209.985-8.35 210.075-8.79 210.175-9.23 210.175-9.72L210.175-9.72Q210.075-10.11 210.125-10.18 210.175-10.25 210.175-10.35L210.175-10.35Q210.175-10.64 210.155-10.94 210.125-11.23 210.125-11.52L210.125-11.52Q210.125-12.11 210.155-12.7 210.175-13.28 210.175-13.87L210.175-13.87Q210.175-14.11 210.155-14.38 210.125-14.65 210.125-14.89L210.125-14.89Q210.075-15.33 210.105-15.82 210.125-16.31 210.125-16.8L210.125-16.8Q210.125-19.14 210.055-21.44 209.985-23.73 209.985-26.07L209.985-26.07Q209.985-27.25 210.105-28.39 210.225-29.54 210.225-30.71L210.225-30.71Q210.225-30.86 210.125-31.1 210.025-31.35 209.935-31.45L209.935-31.45Q209.685-31.45 209.465-31.47 209.245-31.49 209.005-31.49L209.005-31.49Q208.465-31.49 207.975-31.35L207.975-31.35Q207.055-31.3 206.195-31.23 205.345-31.15 204.465-31.1L204.465-31.1Q203.875-31.15 203.755-31.13 203.635-31.1 203.485-31.1L203.485-31.1Q203.095-31.1 202.905-31.3L202.905-31.3 202.905-31.93Q202.605-32.52 202.655-32.57 202.705-32.62 202.705-32.71L202.705-32.71Q202.705-32.86 202.435-33.03 202.165-33.2 202.165-33.59L202.165-33.59Q202.115-33.98 201.975-34.18 201.825-34.38 201.825-34.57L201.825-34.57Q201.825-34.91 201.975-35.35L201.975-35.35Q202.415-35.6 202.825-35.69 203.245-35.79 203.775-35.94L203.775-35.94Q204.075-36.04 204.315-36.13 204.565-36.23 204.855-36.28L204.855-36.28Q205.195-36.33 205.535-36.33 205.875-36.33 206.225-36.38L206.225-36.38Q206.955-36.52 207.755-36.62 208.565-36.72 209.295-36.72L209.295-36.72Q209.985-36.72 210.665-36.55 211.345-36.38 211.885-36.38L211.885-36.38Q212.665-36.38 213.375-36.28 214.085-36.18 214.865-36.18L214.865-36.18Q214.965-36.18 215.185-36.11 215.405-36.04 215.695-36.04L215.695-36.04 220.425-36.04Q220.825-35.94 220.995-35.99 221.165-36.04 221.305-36.04L221.305-36.04Q221.695-36.04 222.045-35.99 222.385-35.94 222.775-35.94L222.775-35.94Q223.115-35.94 223.315-35.99L223.315-35.99Q223.705-35.94 224.045-35.77 224.385-35.6 224.825-35.6L224.825-35.6Q225.015-35.45 225.115-35.23 225.215-35.01 225.455-34.91ZM252.205-37.01L252.305-36.96Q252.555-36.08 252.795-35.23 253.035-34.38 253.385-33.54L253.385-33.54Q254.115-33.45 254.285-33.4 254.455-33.35 254.695-33.25L254.695-33.25Q255.235-31.98 255.355-30.54 255.475-29.1 255.725-27.73L255.725-27.73Q256.655-26.51 257.065-25.12 257.485-23.73 258.015-22.31L258.015-22.31Q258.165-21.83 258.215-21.7 258.265-21.58 258.265-21.48L258.265-21.48Q258.555-20.65 258.845-19.78 259.145-18.9 259.485-18.07L259.485-18.07Q259.635-17.63 259.805-17.21 259.975-16.8 260.115-16.41L260.115-16.41Q260.265-15.92 260.385-15.41 260.505-14.89 260.655-14.4L260.655-14.4Q260.995-13.43 261.385-12.45 261.775-11.47 262.165-10.5L262.165-10.5Q262.315-10.16 262.735-8.98 263.145-7.81 263.585-6.52 264.025-5.22 264.395-4.13 264.755-3.03 264.755-2.78L264.755-2.78Q264.755-2.39 264.835-1.98 264.905-1.56 264.955-1.12L264.955-1.12Q264.755-0.63 264.465-0.59 264.175-0.54 263.925-0.63L263.925-0.63Q263.685-0.54 263.465-0.44 263.245-0.34 263.045-0.24L263.045-0.24Q262.905-0.2 262.805-0.1 262.705 0 262.555 0L262.555 0Q261.975 0 261.805 0.12 261.635 0.24 261.295 0.24L261.295 0.24Q260.855 0.1 260.725 0.22 260.605 0.34 260.505 0.39L260.505 0.39Q260.315 0.49 260.065 0.49 259.825 0.49 259.585 0.54L259.585 0.54Q259.485 0.34 259.415 0.15 259.335-0.05 259.195-0.29L259.195-0.29Q258.655-1.07 258.435-1.81 258.215-2.54 258.065-2.98L258.065-2.98Q257.825-3.52 257.655-4.05 257.485-4.59 257.235-5.13L257.235-5.13Q256.945-5.03 256.705-4.91 256.455-4.79 256.305-4.59L256.305-4.59Q255.725-4.59 255.725-4.44 255.725-4.3 255.625-4.15L255.625-4.15Q255.335-4.05 255.165-3.96 254.995-3.86 254.605-3.91L254.605-3.91Q254.355-3.66 254.115-3.49 253.865-3.32 253.475-3.27L253.475-3.27Q253.085-2.88 252.675-2.61 252.255-2.34 251.715-2.49L251.715-2.49Q251.035-2.34 250.355-2.22 249.665-2.1 248.985-2.1L248.985-2.1Q248.205-2.34 248.005-2.54 247.815-2.73 247.425-2.73L247.425-2.73Q247.475-3.42 247.135-3.66L247.135-3.66Q247.135-3.81 247.155-4.13 247.175-4.44 247.275-4.54L247.275-4.54Q247.915-4.83 248.005-5.18 248.105-5.52 248.545-5.62L248.545-5.62Q248.645-5.81 248.765-5.98 248.885-6.15 248.985-6.35L248.985-6.35Q249.225-6.45 249.405-6.49 249.575-6.54 249.665-6.79L249.665-6.79Q249.915-6.79 250.405-7.1 250.885-7.42 251.035-7.62L251.035-7.62Q251.425-7.76 251.525-7.89 251.625-8.01 251.765-8.11L251.765-8.11Q252.255-8.06 252.405-8.2L252.405-8.2Q252.795-8.01 253.285-8.01L253.285-8.01Q253.475-8.01 253.625-8.03 253.775-8.06 253.965-8.06L253.965-8.06Q254.355-8.45 254.965-8.57 255.575-8.69 255.965-9.08L255.965-9.08Q255.825-9.47 255.725-10.03 255.625-10.6 255.385-10.94L255.385-10.94Q255.285-11.57 255.065-12.16 254.845-12.74 254.695-13.28L254.695-13.28Q254.165-15.33 253.425-17.29 252.695-19.24 252.205-21.29L252.205-21.29Q252.115-21.53 251.985-21.8 251.865-22.07 251.765-22.31L251.765-22.31Q251.525-21.73 251.525-21.66 251.525-21.58 251.425-21.48L251.425-21.48Q251.375-21.24 251.325-21.07 251.285-20.9 251.185-20.65L251.185-20.65Q251.035-20.26 250.915-19.8 250.795-19.34 250.695-18.95L250.695-18.95Q250.455-18.12 250.255-17.21 250.055-16.31 249.815-15.43L249.815-15.43Q249.325-13.92 248.815-12.43 248.305-10.94 247.815-9.42L247.815-9.42Q247.715-8.74 247.595-8.37 247.475-8.01 247.345-7.64 247.225-7.28 247.155-6.93 247.085-6.59 247.085-6.4L247.085-6.4Q246.395-4.83 245.935-3.22 245.465-1.61 244.785-0.1L244.785-0.1Q244.595 0 244.445 0.15 244.295 0.29 244.105 0.29L244.105 0.29Q243.715 0.29 243.685 0.1 243.665-0.1 243.465-0.1L243.465-0.1Q243.275-0.1 243.125-0.02 242.975 0.05 242.835 0.15L242.835 0.15Q242.585 0.05 242.275 0.02 241.955 0 241.805-0.2L241.805-0.2Q241.465 0.05 241.125 0.05L241.125 0.05Q240.735 0.05 240.345-0.2L240.345-0.2Q240.055-0.1 239.755-0.1L239.755-0.1Q239.615-0.1 239.415-0.15 239.215-0.2 239.125-0.29L239.125-0.29Q239.075-0.49 239.075-0.68 239.075-0.88 239.075-1.12L239.075-1.12Q239.075-1.61 238.975-1.86L238.975-1.86Q239.855-4.35 240.685-6.91 241.515-9.47 242.345-12.11L242.345-12.11Q242.785-13.33 243.195-14.5 243.615-15.67 244.005-16.89L244.005-16.89Q244.205-17.58 244.345-18.19 244.495-18.8 244.735-19.38L244.735-19.38Q245.125-20.65 245.545-21.95 245.955-23.24 246.305-24.51L246.305-24.51Q246.495-24.66 246.545-24.85 246.595-25.05 246.695-25.29L246.695-25.29 246.645-25.93Q246.985-26.42 247.105-26.78 247.225-27.15 247.275-27.54L247.275-27.54Q247.525-28.13 247.715-28.81 247.915-29.49 248.005-30.08L248.005-30.08Q248.105-30.86 248.135-31.86 248.155-32.86 248.395-33.54L248.395-33.54Q248.495-33.74 248.575-33.81 248.645-33.89 248.645-34.13L248.645-34.13Q248.745-34.23 248.865-34.35 248.985-34.47 249.035-34.62L249.035-34.62Q249.275-35.01 249.205-35.3 249.135-35.6 249.135-35.94L249.135-35.94Q249.575-36.18 249.525-36.38 249.475-36.57 249.475-36.77L249.475-36.77Q249.475-37.01 249.795-37.23 250.105-37.45 250.205-37.7L250.205-37.7Q250.495-37.65 250.795-37.62 251.085-37.6 251.375-37.65L251.375-37.65Q251.715-37.01 252.205-37.01L252.205-37.01ZM290.135-13.33L290.135-13.33Q290.235-13.09 290.875-12.28 291.505-11.47 292.315-10.52 293.115-9.57 293.895-8.69 294.685-7.81 294.975-7.42L294.975-7.42Q295.905-6.05 296.875-4.74 297.855-3.42 298.735-2L298.735-2Q298.975-1.76 299.125-1.39 299.265-1.03 299.265-0.63L299.265-0.63Q299.265-0.2 299.055-0.17 298.835-0.15 298.585-0.05L298.585-0.05Q298.095 0.29 297.705 0.34 297.315 0.39 297.075 0.39L297.075 0.39Q296.535 0.39 295.905 0.37 295.265 0.34 294.825 0.44L294.825 0.44Q294.685 0.49 294.485 0.61 294.285 0.73 294.195 0.73L294.195 0.73Q293.805 0.73 293.635 0.61 293.455 0.49 293.165 0.39L293.165 0.39Q292.775-0.05 292.455-0.54 292.145-1.03 291.795-1.51L291.795-1.51Q291.505-1.86 291.165-2.12 290.825-2.39 290.525-2.78L290.525-2.78Q289.745-3.91 288.945-4.93 288.135-5.96 287.305-6.98L287.305-6.98Q286.915-7.52 286.455-8.01 285.985-8.5 285.595-8.98L285.595-8.98Q285.205-9.52 284.865-10.11 284.525-10.69 284.135-11.23L284.135-11.23Q283.845-11.72 283.305-12.43 282.765-13.13 282.185-13.87 281.595-14.6 280.985-15.26 280.375-15.92 279.935-16.26L279.935-16.26Q279.935-16.6 279.735-16.75 279.545-16.89 279.295-17.09L279.295-17.09Q279.205-17.33 279.055-17.55 278.905-17.77 278.905-18.07L278.905-18.07Q278.905-18.26 278.955-18.41 279.005-18.55 279.055-18.7L279.055-18.7Q279.155-18.9 279.175-19.07 279.205-19.24 279.295-19.43L279.295-19.43Q279.545-20.07 280.005-20.56 280.475-21.04 280.715-21.68L280.715-21.68Q280.765-21.88 280.765-22.05 280.765-22.22 280.865-22.41L280.865-22.41Q281.005-22.71 281.305-23 281.595-23.29 281.835-23.63L281.835-23.63Q282.085-24.07 282.325-24.51 282.575-24.95 282.815-25.39L282.815-25.39Q283.495-26.51 284.325-27.56 285.155-28.61 285.895-29.64L285.895-29.64Q286.575-30.62 287.165-31.57 287.745-32.52 288.435-33.5L288.435-33.5Q288.775-33.98 289.215-34.59 289.655-35.21 290.115-35.79 290.575-36.38 291.065-36.89 291.555-37.4 292.045-37.65L292.045-37.65Q292.875-37.74 293.115-37.38 293.365-37.01 293.805-37.01L293.805-37.01Q294.485-36.87 294.725-36.57 294.975-36.28 295.215-36.04L295.215-36.04Q295.855-36.04 296.295-35.79 296.735-35.55 297.175-35.06L297.175-35.06Q296.975-34.52 296.655-34.08 296.345-33.64 296.095-33.15L296.095-33.15Q295.705-33.01 295.535-32.67 295.365-32.32 295.025-32.08L295.025-32.08Q294.485-31.25 293.945-30.44 293.415-29.64 292.875-28.91L292.875-28.91Q292.625-28.61 292.315-28.44 291.995-28.27 291.795-27.93L291.795-27.93Q291.705-27.78 291.655-27.61 291.605-27.44 291.505-27.29L291.505-27.29Q290.925-26.37 290.185-25.49 289.455-24.61 288.915-23.63L288.915-23.63Q288.675-23.29 288.525-22.92 288.385-22.56 288.185-22.22L288.185-22.22Q287.995-21.92 287.625-21.39 287.255-20.85 286.895-20.29 286.525-19.73 286.255-19.21 285.985-18.7 285.985-18.36L285.985-18.36Q286.035-18.12 286.625-17.38 287.205-16.65 287.915-15.82 288.625-14.99 289.285-14.26 289.945-13.53 290.135-13.33ZM336.955 0.15L336.615 0.1Q336.375 0.68 335.585 1.07L335.585 1.07Q335.245 0.88 334.975 0.61 334.715 0.34 334.315 0.2L334.315 0.2Q334.025-0.39 333.885-0.51 333.735-0.63 333.535-0.68L333.535-0.68Q333.245-0.93 333.055-1.27 332.855-1.61 332.615-1.86L332.615-1.86Q332.515-1.9 332.245-2.17 331.975-2.44 331.685-2.73 331.395-3.03 331.145-3.3 330.905-3.56 330.855-3.56L330.855-3.56Q330.415-3.86 330.075-4.2L330.075-4.2Q329.975-4.35 329.855-4.52 329.725-4.69 329.635-4.79L329.635-4.79Q329.245-4.93 328.995-5.2 328.755-5.47 328.535-5.81 328.315-6.15 328.045-6.42 327.775-6.69 327.435-6.84L327.435-6.84Q327.095-7.32 326.605-7.64 326.115-7.96 325.775-8.4L325.775-8.4Q325.485-8.74 325.145-9.06 324.795-9.38 324.405-9.67L324.405-9.67Q324.215-9.96 323.775-10.52 323.335-11.08 322.995-11.13L322.995-11.13Q322.945-10.01 322.915-8.89 322.895-7.76 322.845-6.64L322.845-6.64Q322.845-6.05 322.865-5.42 322.895-4.79 322.845-4.15L322.845-4.15Q322.795-3.91 322.725-3.64 322.645-3.37 322.645-3.08L322.645-3.08Q322.645-2.49 322.575-2.32 322.505-2.15 322.455-2L322.455-2Q322.305-1.51 322.185-0.81 322.065-0.1 321.675 0.29L321.675 0.29Q321.135 0.34 320.845 0.2L320.845 0.2Q320.745 0.29 320.645 0.39 320.555 0.49 320.355 0.49L320.355 0.49Q320.255 0.39 320.035 0.32 319.815 0.24 319.725 0.24L319.725 0.24Q319.475 0.24 319.205 0.34 318.935 0.44 318.695 0.44L318.695 0.44Q318.455 0.44 318.275 0.32 318.105 0.2 317.865 0.2L317.865 0.2Q317.715 0.2 317.525 0.34 317.325 0.49 317.135 0.49L317.135 0.49Q316.885 0.49 316.715 0.42 316.545 0.34 316.355 0.29L316.355 0.29Q316.355 0.15 316.375 0 316.395-0.15 316.355-0.29L316.355-0.29 316.155-1.51Q316.205-1.86 316.275-2.2 316.355-2.54 316.395-2.83L316.395-2.83Q316.445-3.61 316.475-4.32 316.495-5.03 316.495-5.76L316.495-5.76Q316.495-7.03 316.475-8.25 316.445-9.47 316.495-10.74L316.495-10.74Q316.545-11.18 316.615-11.65 316.695-12.11 316.695-12.55L316.695-12.55Q316.695-13.82 316.835-15.04 316.985-16.26 317.085-17.53L317.085-17.53Q317.185-18.51 317.185-19.43 317.185-20.36 317.185-21.29L317.185-21.29Q317.185-23.1 317.135-24.88 317.085-26.66 317.085-28.42L317.085-28.42Q317.085-29 317.135-30 317.185-31.01 317.035-31.54L317.035-31.54Q317.085-32.96 317.035-34.33L317.035-34.33Q317.225-34.42 317.255-34.62 317.275-34.81 317.275-35.01L317.275-35.01 317.275-35.69Q317.715-36.18 318.015-36.18L318.015-36.18Q318.255-36.18 318.495-36.13 318.745-36.08 318.985-35.94L318.985-35.94Q319.625-36.08 319.815-35.99 320.015-35.89 320.255-35.79L320.255-35.79Q320.645-35.84 320.795-36.13L320.795-36.13Q321.335-36.04 321.335-35.89 321.335-35.74 321.425-35.6L321.425-35.6Q321.915-35.55 322.085-35.67 322.255-35.79 322.505-35.84L322.505-35.84Q322.945-35.74 323.085-35.6L323.085-35.6Q323.085-35.3 323.235-34.94 323.385-34.57 323.385-33.98L323.385-33.98Q323.385-33.54 323.335-33.13 323.285-32.71 323.285-32.32L323.285-32.32Q323.285-31.64 323.335-31.01 323.385-30.37 323.385-29.69L323.385-29.69Q323.385-29.49 323.355-29.32 323.335-29.15 323.335-28.96L323.335-28.96Q323.335-27.1 323.435-25.2 323.525-23.29 323.525-21.39L323.525-21.39Q323.525-21.29 323.475-21.12 323.435-20.95 323.525-20.85L323.525-20.85Q324.355-21.73 324.945-22.73 325.535-23.73 326.215-24.71L326.215-24.71Q326.805-25.44 327.415-26.46 328.025-27.49 328.465-28.32L328.465-28.32Q328.655-28.61 328.805-28.91 328.945-29.2 329.145-29.49L329.145-29.49Q329.245-29.74 329.415-29.96 329.585-30.18 329.685-30.47L329.685-30.47Q329.925-30.86 330.125-31.23 330.315-31.59 330.555-31.98L330.555-31.98Q330.805-32.37 331.075-32.69 331.345-33.01 331.585-33.35L331.585-33.35Q331.975-33.98 332.415-34.64 332.855-35.3 333.195-35.99L333.195-35.99Q333.685-36.23 334.075-36.55 334.465-36.87 334.905-37.11L334.905-37.11Q335.395-36.47 335.615-36.23 335.835-35.99 336.225-35.94L336.225-35.94Q336.325-35.79 336.345-35.6 336.375-35.4 336.515-35.3L336.515-35.3Q337.105-35.25 337.205-35.3L337.205-35.3Q337.345-35.06 337.615-34.94 337.885-34.81 338.125-34.72L338.125-34.72Q338.125-34.57 338.125-34.4 338.125-34.23 338.175-34.13L338.175-34.13Q338.765-33.89 338.765-33.2L338.765-33.2Q337.835-31.54 336.735-30.05 335.635-28.56 334.805-26.86L334.805-26.86Q334.565-26.32 334.245-25.83 333.925-25.34 333.735-24.8L333.735-24.8Q333.395-24.46 333.195-24.1 333.005-23.73 332.705-23.39L332.705-23.39Q332.515-23.14 332.315-22.88 332.125-22.61 331.925-22.36L331.925-22.36Q331.535-21.83 331.215-21.26 330.905-20.7 330.465-20.17L330.465-20.17Q330.165-19.68 329.775-19.19L329.775-19.19Q329.385-18.65 329.115-17.99 328.855-17.33 328.465-16.8L328.465-16.8Q328.065-16.21 328.045-15.94 328.025-15.67 327.775-15.04L327.775-15.04Q328.115-14.5 328.555-14.06 328.995-13.62 329.485-13.23L329.485-13.23Q329.875-12.7 330.385-12.28 330.905-11.87 331.435-11.38L331.435-11.38Q331.635-11.18 331.785-11.01 331.925-10.84 332.125-10.69L332.125-10.69Q332.655-10.11 333.415-9.57 334.175-9.03 334.855-8.54L334.855-8.54Q335.395-8.06 336.195-7.35 337.005-6.64 337.885-5.83 338.765-5.03 339.445-4.32 340.135-3.61 340.135-3.42L340.135-3.42Q339.885-2.69 339.565-2.51 339.255-2.34 339.105-2L339.105-2Q338.815-1.9 338.815-1.81 338.815-1.71 338.665-1.46L338.665-1.46Q338.325-1.22 338.075-0.9 337.835-0.59 337.595-0.29L337.595-0.29Q337.395-0.2 337.225-0.12 337.055-0.05 336.955 0.15L336.955 0.15Z" fill="#374151" data-fill-palette-color="primary"></path><path d="M378.371 0.59L378.371 0.59Q378.181 0.39 378.181 0.05L378.181 0.05Q378.181-0.2 378.201-0.37 378.231-0.54 378.281-0.78L378.281-0.78Q378.521-1.9 378.521-3.05 378.521-4.2 378.621-5.32L378.621-5.32Q378.671-6.01 378.691-6.69 378.721-7.37 378.721-8.06L378.721-8.06Q378.721-12.11 378.471-16.14 378.231-20.17 378.231-24.27L378.231-24.27Q378.231-27.1 378.331-29.96 378.421-32.81 378.471-35.69L378.471-35.69Q378.911-35.94 379.551-35.89 380.181-35.84 380.571-36.33L380.571-36.33Q380.821-36.38 381.061-36.35 381.301-36.33 381.551-36.33L381.551-36.33Q382.081-36.33 382.571-36.67 383.061-37.01 383.651-37.26L383.651-37.26Q383.941-37.16 384.061-37.18 384.181-37.21 384.331-37.21L384.331-37.21Q384.481-37.21 384.971-36.87 385.451-36.52 386.041-36.08 386.631-35.64 387.141-35.25 387.651-34.86 387.801-34.77L387.801-34.77Q389.021-33.84 389.971-32.74 390.921-31.64 391.851-30.52L391.851-30.52Q392.731-29.39 393.751-28.25 394.781-27.1 395.761-26.12L395.761-26.12Q396.101-25.73 396.461-25.44 396.831-25.15 397.171-24.76L397.171-24.76Q397.321-24.56 397.441-24.34 397.561-24.12 397.711-23.88L397.711-23.88Q398.001-23.54 398.391-23.29 398.781-23.05 399.131-22.71L399.131-22.71Q399.371-22.51 399.861-21.92 400.351-21.34 400.351-21.04L400.351-21.04Q400.351-20.85 400.251-20.7 400.151-20.56 400.051-20.36L400.051-20.36Q400.001-20.21 400.001-19.92 400.001-19.63 399.961-19.53L399.961-19.53Q399.471-19.14 399.421-19.04 399.371-18.95 399.271-18.85L399.271-18.85Q399.131-18.65 398.911-18.53 398.691-18.41 398.591-18.16L398.591-18.16Q398.491-18.02 398.521-17.87 398.541-17.72 398.441-17.53L398.441-17.53Q398.201-16.99 397.661-16.5 397.121-16.02 396.731-15.43L396.731-15.43Q396.201-14.55 395.661-13.67 395.121-12.79 394.441-11.96L394.441-11.96Q394.151-11.57 393.831-11.21 393.511-10.84 393.221-10.45L393.221-10.45Q392.971-10.16 392.781-9.84 392.581-9.52 392.341-9.13L392.341-9.13Q391.801-8.45 391.311-7.79 390.831-7.13 390.291-6.45L390.291-6.45Q389.701-5.62 389.021-4.81 388.331-4 387.801-3.17L387.801-3.17Q387.261-2.29 386.671-1.56 386.091-0.83 385.411-0.15L385.411-0.15Q385.211 0 384.921 0.29 384.621 0.59 384.331 0.59L384.331 0.59Q384.141 0.59 384.011 0.44 383.891 0.29 383.651 0.29L383.651 0.29Q383.601 0.29 383.351 0.34 383.111 0.39 382.771 0.44L382.771 0.44 381.891 0.54Q381.111 0.93 380.771 0.9 380.421 0.88 380.081 0.93L380.081 0.93Q379.891 0.98 379.771 1.07 379.641 1.17 379.501 1.17L379.501 1.17Q379.161 1.17 378.961 0.85 378.761 0.54 378.371 0.59ZM393.021-20.51L393.021-20.51Q393.021-20.75 392.561-21.19 392.091-21.63 391.851-21.83L391.851-21.83Q391.511-22.12 391.041-22.39 390.581-22.66 390.291-23L390.291-23Q390.041-23.29 389.821-23.61 389.601-23.93 389.361-24.22L389.361-24.22Q388.481-25.2 387.581-26.17 386.671-27.15 385.991-28.32L385.991-28.32Q385.551-28.61 385.161-29 384.771-29.39 384.231-29.64L384.231-29.64Q384.141-29.35 384.161-29.03 384.181-28.71 384.181-28.42L384.181-28.42Q384.181-27.29 384.091-26.22 383.991-25.15 383.991-24.07L383.991-24.07Q383.991-21.44 384.111-18.87 384.231-16.31 384.231-13.72L384.231-13.72Q384.231-12.74 384.261-11.77 384.281-10.79 384.431-9.81L384.431-9.81Q384.331-9.52 384.331-9.28L384.331-9.28Q384.331-9.03 384.431-8.64L384.431-8.64Q384.821-8.89 385.091-9.25 385.361-9.62 385.601-9.96L385.601-9.96Q386.431-11.04 387.241-12.13 388.041-13.23 388.871-14.36L388.871-14.36Q389.411-15.09 389.971-15.8 390.531-16.5 391.071-17.29L391.071-17.29Q391.221-17.48 391.531-17.97 391.851-18.46 392.171-18.97 392.491-19.48 392.751-19.92 393.021-20.36 393.021-20.51ZM424.701-12.79L424.701-12.79Q424.801-12.55 425.411-11.77 426.021-10.99 426.801-10.06 427.581-9.13 428.291-8.28 429.001-7.42 429.291-7.03L429.291-7.03Q429.831-6.35 430.341-5.69 430.861-5.03 431.291-4.3L431.291-4.3 432.171-2.83Q432.561-2.34 432.881-2 433.201-1.66 433.391-1.07L433.391-1.07Q433.491-0.68 433.491-0.54L433.491-0.54Q433.491-0.2 433.251-0.05L433.251-0.05Q432.861-0.05 432.831 0.07 432.811 0.2 432.611 0.29L432.611 0.29Q432.421 0.39 432.001 0.42 431.591 0.44 431.341 0.44L431.341 0.44Q430.901 0.44 430.251 0.42 429.591 0.39 429.201 0.54L429.201 0.54Q429.101 0.59 428.901 0.68 428.711 0.78 428.611 0.78L428.611 0.78Q428.221 0.78 428.051 0.66 427.881 0.54 427.581 0.49L427.581 0.49Q427.191 0.05 426.921-0.42 426.661-0.88 426.311-1.37L426.311-1.37Q425.971-1.71 425.631-1.98 425.291-2.25 425.041-2.59L425.041-2.59Q424.311-3.66 423.531-4.69 422.751-5.71 421.921-6.69L421.921-6.69Q421.531-7.23 421.091-7.67 420.651-8.11 420.261-8.64L420.261-8.64Q419.871-9.13 419.531-9.69 419.191-10.25 418.841-10.79L418.841-10.79Q418.551-11.23 418.061-11.94 417.571-12.65 416.991-13.35 416.401-14.06 415.821-14.7 415.231-15.33 414.841-15.67L414.841-15.67Q414.791-15.97 414.601-16.14 414.401-16.31 414.161-16.46L414.161-16.46Q414.061-16.7 413.941-16.92 413.811-17.14 413.811-17.38L413.811-17.38Q413.811-17.72 413.961-18.02L413.961-18.02Q414.061-18.21 414.081-18.38 414.111-18.55 414.201-18.75L414.201-18.75Q414.451-19.29 414.861-19.8 415.281-20.31 415.521-20.9L415.521-20.9Q415.621-21.04 415.621-21.22 415.621-21.39 415.721-21.53L415.721-21.53Q415.821-21.92 416.131-22.19 416.451-22.46 416.651-22.8L416.651-22.8Q416.891-23.19 417.111-23.61 417.331-24.02 417.571-24.51L417.571-24.51Q418.311-25.73 419.111-26.88 419.921-28.03 420.751-29.2L420.751-29.2Q421.381-30.18 421.991-31.08 422.601-31.98 423.241-32.91L423.241-32.91Q423.581-33.35 423.971-33.94 424.361-34.52 424.831-35.11 425.291-35.69 425.781-36.18 426.271-36.67 426.751-36.96L426.751-36.96Q427.491-37.01 427.731-36.65 427.971-36.28 428.461-36.28L428.461-36.28Q429.101-36.13 429.291-35.89 429.491-35.64 429.731-35.4L429.731-35.4Q430.421-35.4 430.831-35.16 431.251-34.91 431.641-34.42L431.641-34.42Q431.491-33.89 431.201-33.47 430.901-33.06 430.661-32.62L430.661-32.62Q430.271-32.42 430.101-32.08 429.931-31.74 429.591-31.54L429.591-31.54Q429.101-30.71 428.561-29.96 428.021-29.2 427.491-28.47L427.491-28.47Q427.191-28.03 426.881-27.69 426.561-27.34 426.311-26.95L426.311-26.95Q426.221-26.81 426.141-26.64 426.071-26.46 425.971-26.32L425.971-26.32Q425.391-25.39 424.701-24.58 424.021-23.78 423.431-22.8L423.431-22.8Q423.241-22.46 423.121-22.09 422.991-21.73 422.801-21.39L422.801-21.39Q422.601-21.09 422.241-20.61 421.871-20.12 421.531-19.56 421.191-18.99 420.921-18.48 420.651-17.97 420.651-17.63L420.651-17.63Q420.701-17.38 421.261-16.67 421.821-15.97 422.531-15.16 423.241-14.36 423.871-13.65 424.511-12.94 424.701-12.79ZM427.931-21.68L427.931-21.68Q428.271-20.95 428.661-20.41L428.661-20.41Q428.801-20.21 429.001-20.07 429.201-19.92 429.291-19.68L429.291-19.68Q429.391-19.58 429.491-19.26 429.591-18.95 429.681-18.8L429.681-18.8Q429.831-18.41 430.271-17.92 430.711-17.43 430.711-17.04L430.711-17.04Q430.711-16.8 430.611-16.5 430.511-16.21 430.461-15.97L430.461-15.97Q430.421-15.67 430.421-15.36 430.421-15.04 430.221-14.79L430.221-14.79Q429.981-14.55 429.681-14.5 429.391-14.45 429.151-14.26L429.151-14.26Q429.051-14.16 428.851-13.92 428.661-13.67 428.461-13.38 428.271-13.09 428.101-12.82 427.931-12.55 427.931-12.4L427.931-12.4Q427.341-12.35 427.171-12.38 427.001-12.4 426.801-12.35L426.801-12.35Q426.561-12.6 426.291-12.77 426.021-12.94 425.631-13.09L425.631-13.09Q425.531-13.48 425.191-13.99 424.851-14.5 424.611-14.84L424.611-14.84 424.261-15.28Q423.531-16.31 422.921-17.26 422.311-18.21 422.021-19.38L422.021-19.38Q422.951-20.07 423.461-20.41 423.971-20.75 424.561-21.04 425.141-21.34 425.701-21.61 426.271-21.88 426.751-22.27L426.751-22.27Q427.141-22.27 427.291-22.22 427.441-22.17 427.491-22.12 427.541-22.07 427.611-21.95 427.681-21.83 427.931-21.68ZM467.861-37.55L467.861-37.55Q468.251-37.55 468.421-37.38 468.591-37.21 468.691-36.96L468.691-36.96Q469.181-37.01 469.691-36.79 470.201-36.57 470.301-36.38L470.301-36.38Q470.691-36.33 470.791-36.18 470.891-36.04 471.081-35.99L471.081-35.99 471.621-36.04Q471.811-35.84 472.371-35.64 472.941-35.45 473.031-35.21L473.031-35.21Q472.941-34.96 472.961-34.69 472.991-34.42 472.991-34.08L472.991-34.08Q472.841-33.35 472.521-32.76 472.201-32.18 471.961-31.64L471.961-31.64Q471.811-31.4 471.741-31.1 471.671-30.81 471.571-30.57L471.571-30.57Q471.471-30.37 471.401-30.2 471.331-30.03 471.231-29.83L471.231-29.83Q471.231-29.59 471.131-29.32 471.031-29.05 470.931-28.81L470.931-28.81Q470.931-28.52 470.891-28.39 470.841-28.27 470.841-28.17L470.841-28.17Q469.911-25.93 469.371-23.97 468.831-22.02 468.301-20.07L468.301-20.07Q468.051-19.48 467.811-18.6 467.571-17.72 467.201-16.53 466.831-15.33 466.421-13.99 466.001-12.65 465.641-11.5 465.271-10.35 465.001-9.55 464.731-8.74 464.681-8.64L464.681-8.64Q464.541-7.81 464.251-6.96 463.951-6.1 463.761-5.18L463.761-5.18Q463.511-4.88 463.461-4.52 463.421-4.15 463.221-3.81L463.221-3.81Q462.831-3.86 462.581-3.61L462.581-3.61Q462.541-3.22 462.661-2.88 462.781-2.54 462.781-2.15L462.781-2.15Q462.581-1.61 462.291-1.46 462.001-1.32 461.901-0.98L461.901-0.98Q461.561-1.07 461.391-0.88 461.221-0.68 461.021-0.68L461.021-0.68Q460.441-0.83 460.341-0.49L460.341-0.49Q460.051-0.59 459.951-0.42 459.851-0.24 459.751-0.2L459.751-0.2Q459.361-0.2 459.141-0.02 458.921 0.15 458.631 0.2L458.631 0.2Q458.431 0.1 458.241-0.02 458.041-0.15 457.901-0.29L457.901-0.29Q457.601-1.12 457.361-1.93 457.121-2.73 456.871-3.56L456.871-3.56Q456.771-3.96 456.631-4.3 456.481-4.64 456.381-5.03L456.381-5.03Q456.331-5.27 456.331-5.44 456.331-5.62 456.291-5.81L456.291-5.81Q456.191-6.05 456.091-6.3 455.991-6.54 455.901-6.79L455.901-6.79Q455.501-7.86 455.311-8.98L455.311-8.98Q455.071-9.81 454.851-10.62 454.631-11.43 454.431-12.26L454.431-12.26Q454.281-12.94 454.091-13.7 453.891-14.45 453.601-15.04L453.601-15.04Q453.501-15.82 453.191-16.53 452.871-17.24 452.871-17.97L452.871-17.97Q452.621-18.75 452.451-19.53 452.281-20.31 452.041-21.09L452.041-21.09Q451.941-21.48 451.791-21.83 451.651-22.17 451.551-22.51L451.551-22.51Q451.401-22.95 451.311-23.44 451.211-23.93 451.111-24.41L451.111-24.41Q450.961-24.85 450.821-25.27 450.671-25.68 450.521-26.12L450.521-26.12Q450.281-26.95 450.061-27.76 449.841-28.56 449.601-29.39L449.601-29.39Q449.351-30.32 449.131-31.23 448.911-32.13 448.381-32.96L448.381-32.96Q448.231-33.2 448.161-33.52 448.081-33.84 447.941-34.13L447.941-34.13Q448.031-34.52 447.991-35.03 447.941-35.55 448.131-35.84L448.131-35.84Q448.621-35.84 449.301-35.86 449.991-35.89 450.331-35.79L450.331-35.79Q450.521-35.84 450.651-35.94 450.771-36.04 450.961-36.08L450.961-36.08Q451.261-35.94 451.551-35.94L451.551-35.94Q451.991-35.94 452.231-36.13L452.231-36.13Q452.771-35.89 452.821-36.04 452.871-36.18 453.061-36.18L453.061-36.18Q453.361-36.08 453.501-35.77 453.651-35.45 453.801-35.21L453.801-35.21Q454.331-34.23 454.601-33.28 454.871-32.32 455.161-31.25L455.161-31.25Q455.501-30.27 455.801-29.32 456.091-28.37 456.331-27.39L456.331-27.39Q456.481-26.9 456.581-26.42 456.681-25.93 456.771-25.44L456.771-25.44Q456.921-24.9 457.121-24.44 457.311-23.97 457.511-23.44L457.511-23.44Q457.601-22.9 457.701-22.39 457.801-21.88 457.951-21.34L457.951-21.34Q458.041-20.95 458.191-20.61 458.341-20.26 458.431-19.87L458.431-19.87Q458.531-19.48 458.631-19.07 458.731-18.65 458.831-18.26L458.831-18.26Q459.071-17.29 459.361-16.33 459.661-15.38 459.901-14.4L459.901-14.4Q460.141-14.55 460.191-14.94 460.241-15.33 460.391-15.58L460.391-15.58Q460.491-16.16 460.711-16.85 460.921-17.53 461.121-18.12L461.121-18.12Q461.171-18.36 461.241-18.55 461.321-18.75 461.411-18.99L461.411-18.99Q461.561-19.29 461.611-19.6 461.661-19.92 461.751-20.26L461.751-20.26Q461.951-20.95 462.171-21.63 462.391-22.31 462.581-23L462.581-23Q462.781-23.63 462.931-24.32 463.071-25 463.321-25.59L463.321-25.59Q463.561-26.12 463.731-26.61 463.901-27.1 464.051-27.64L464.051-27.64Q464.201-28.17 464.291-28.71 464.391-29.25 464.641-29.69L464.641-29.69Q464.731-29.93 464.861-30.25 464.981-30.57 465.081-30.86L465.081-30.86Q465.321-31.64 465.511-32.42 465.711-33.2 466.051-33.98L466.051-33.98Q466.301-34.67 466.641-35.3 466.981-35.94 467.221-36.62L467.221-36.62Q467.421-37.11 467.571-37.26 467.711-37.4 467.861-37.55Z" fill="#374151" data-fill-palette-color="primary"></path></g></svg></g></svg></g></svg></g></svg></g><g transform="matrix(1,0,0,1,48.09704738121301,0)"><svg viewBox="0 0 127.80590523757398 127.45046954003288" height="127.45046954003288" width="127.80590523757398"><g><svg xmlns="http://www.w3.org/2000/svg" xmlns:xlink="http://www.w3.org/1999/xlink" version="1.1" x="0" y="0" viewBox="5.958038806915283 6.079999923706055 88.08596801757812 87.84099578857422" enable-background="new 0 0 100 100" xml:space="preserve" height="127.45046954003288" width="127.80590523757398" class="icon-icon-0" data-fill-palette-color="accent" id="icon-0"><path d="M87.921 64.017c-1.854-1.63-17.356-7.408-25.238-10.109 3.012-3.726 4.971-8.288 5.784-11.438 1.18-1.17 2.043-3.33 2.118-5.423 0.064-1.801-0.465-3.362-1.501-4.468 0.006-0.536 3.317-7.547 0.336-15.516C66.111 8.218 59.389 6.08 55.611 6.08c-4.634 0-8.772 2.64-10.726 4.118-0.989-0.935-2.609-2.065-4.653-2.065-3.293 0-6.983 2.111-9.502 7.698-3.466 7.691-0.566 14.727 0.305 17.193-0.927 0.987-1.425 2.306-1.42 3.814 0.006 2.079 1.004 4.436 2.349 5.687 0.552 2.109 2.108 7.061 5.408 11.383-16.008 6.026-24.514 9.463-25.291 10.22-1.808 1.76-4.854 15.645-6.08 20.673-0.11 0.45-0.006 0.926 0.28 1.291 0.287 0.365 0.724 0.577 1.188 0.577h12.229l1.472 6.095c0.164 0.679 0.771 1.157 1.468 1.157H77.87c0.698 0 1.305-0.478 1.468-1.156l1.472-6.096h11.703c0.007 0 0.013 0 0.02 0 0.835 0 1.511-0.677 1.511-1.511C94.044 84.976 89.842 65.705 87.921 64.017zM34.775 41.32c-0.088-0.364-0.307-0.683-0.616-0.894-0.604-0.413-1.524-2.058-1.524-3.597 0-2.019 1.304-2.066 1.304-2.066 0.307-0.028 2.688-4.897 3.539-7.753 0.737-2.474 1.049-4.361 1.175-5.639 2.111 1.744 5.034 3.768 11.894 3.72 6.507-0.046 10.276-4.721 11.031-5.394 2.606 3.724 4.423 14.985 4.48 15.066 0.046 0.067 1.597 0.063 1.507 2.175-0.073 1.728-0.887 3.16-1.331 3.477-0.302 0.215-0.514 0.535-0.596 0.897-0.714 3.15-4.751 16.529-15.618 16.529C38.942 57.841 35.193 43.058 34.775 41.32zM76.681 90.899H23.826l-4.104-18.849h61.063L76.681 90.899z" fill="#374151" data-fill-palette-color="accent"></path></svg></g></svg></g><g></g></svg></g></svg></g></svg></g><defs></defs></svg><rect width="448" height="360" fill="none" stroke="none" visibility="hidden"></rect></g></svg></g></svg>